<?xml version="1.0" encoding="UTF-8" standalone="no"?>
<svg
   xmlns:dc="http://purl.org/dc/elements/1.1/"
   xmlns:cc="http://creativecommons.org/ns#"
   xmlns:rdf="http://www.w3.org/1999/02/22-rdf-syntax-ns#"
   xmlns:svg="http://www.w3.org/2000/svg"
   xmlns="http://www.w3.org/2000/svg"
   width="256pt"
   height="256pt"
   viewBox="0 0 256 256"
   version="1.1"
   id="svg9">
  <metadata
     id="metadata15">
    <rdf:RDF>
      <cc:Work
         rdf:about="">
        <dc:format>image/svg+xml</dc:format>
        <dc:type
           rdf:resource="http://purl.org/dc/dcmitype/StillImage" />
        <dc:title></dc:title>
      </cc:Work>
    </rdf:RDF>
  </metadata>
  <defs
     id="defs13">
    <style
       type="text/css"
       id="style844">
   
    .fil0 {fill:#000000}
    .fil1 {fill:#000000;fill-rule:nonzero}
   
  </style>
  </defs>
  <path
     style="fill:#fc5652;fill-opacity:1;fill-rule:nonzero;stroke:none"
     d="m 128.12891,-0.164062 c -34.421879,0 -66.050785,13.121093 -90.445316,37.523437 C 13.289062,61.765625 0.171875,93.40625 0.171875,127.84375 c 0,34.4375 13.117187,66.07812 37.511719,90.48047 20.484375,20.49219 46.089844,33.03125 75.062496,36.76172 11.37891,1.46875 28.82032,0.72265 41.25391,-1.75391 44.76172,-8.92187 83.00391,-43.60547 96.40625,-87.4375 14.0625,-45.98437 2.00391,-94.687499 -31.82813,-128.535155 C 194.18359,12.957031 162.55469,-0.164062 128.12891,-0.164062 Z M 126.96484,9.875 c 18.51953,-0.167969 37.02344,4.027344 53.89063,12.480469 23.11328,11.585937 41.14062,29.617187 52.72265,52.742187 16.64454,33.242184 16.64454,72.250004 0,105.488284 -5.80859,11.60156 -11.59765,19.7539 -20.8125,29.33203 -19.5039,20.26953 -45.32812,32.625 -74.04687,35.43359 -21.42187,2.09375 -43.527344,-2.10547 -63.3125,-12.01953 C 63.8125,227.51953 55.660156,221.73047 46.085938,212.51172 9.15625,176.94531 -0.355469,121.10156 22.683594,75.097656 36.53125,47.445312 60.320312,26.527344 89.457031,16.382812 101.61719,12.148438 114.29688,9.988281 126.96484,9.875 Z m 0,0"
     id="path2" />
  <g
     id="g873"
     transform="matrix(2.2447998,0,0,2.2447998,-592.85831,-11.853492)">
    <path
       class="fil0"
       d="m 358.2619,43.795633 -5.48781,4.181185 c -16.20209,-20.383275 -47.8223,-20.383275 -63.76306,0 l -5.74913,-4.181185 c 19.07665,-24.303135 56.18467,-24.303135 75,0 z m -7.5784,5.749129 -5.4878,4.442508 c -12.28223,-15.679442 -36.58537,-15.679442 -48.8676,0 l -5.4878,-4.442508 c 15.15679,-19.337978 44.68641,-19.337978 59.8432,0 z m -7.31707,5.749128 -5.74913,4.442509 c -8.36237,-10.975609 -25.08711,-10.975609 -33.7108,0 l -5.74913,-4.442509 c 11.49826,-14.372821 33.7108,-14.372821 45.20906,0 z"
       id="path848"
       style="clip-rule:evenodd;fill:#fc5652;fill-opacity:1;fill-rule:evenodd;stroke-width:0.261324;image-rendering:optimizeQuality;shape-rendering:geometricPrecision;text-rendering:geometricPrecision" />
    <path
       class="fil1"
       d="m 323.5058,71.49598 v 25.348431 h -5.22648 V 71.49598 c -3.39721,-1.045296 -5.4878,-4.181184 -5.4878,-7.578397 0,-4.442508 3.39721,-8.101045 8.10104,-8.101045 4.44251,0 8.10105,3.658537 8.10105,8.101045 0,3.397213 -2.35192,6.533101 -5.48781,7.578397 z"
       id="path850"
       style="clip-rule:evenodd;fill:#fc5652;fill-opacity:1;stroke-width:0.261324;image-rendering:optimizeQuality;shape-rendering:geometricPrecision;text-rendering:geometricPrecision" />
  </g>
</svg>
