<?xml version="1.0" encoding="UTF-8"?>
<svg xmlns="http://www.w3.org/2000/svg" xmlns:xlink="http://www.w3.org/1999/xlink" width="256pt" height="256pt" viewBox="0 0 256 256" version="1.1">
<g id="surface1">
<path style=" stroke:none;fill-rule:nonzero;fill:rgb(78.431373%,21.568627%,44.313725%);fill-opacity:1;" d="M 127.976562 0.03125 C 93.605469 0.03125 62.03125 13.128906 37.671875 37.484375 C 13.316406 61.839844 0.21875 93.417969 0.21875 127.789062 C 0.21875 162.160156 13.316406 193.734375 37.671875 218.089844 C 58.125 238.542969 83.6875 251.058594 112.617188 254.78125 C 123.976562 256.246094 141.390625 255.503906 153.804688 253.03125 C 198.496094 244.125 236.679688 209.507812 250.0625 165.765625 C 264.101562 119.871094 252.058594 71.261719 218.28125 37.484375 C 193.921875 13.128906 162.347656 0.03125 127.976562 0.03125 Z M 126.8125 10.050781 C 145.300781 9.882812 163.777344 14.070312 180.617188 22.507812 C 203.695312 34.070312 221.695312 52.066406 233.257812 75.148438 C 249.878906 108.324219 249.878906 147.253906 233.257812 180.429688 C 227.457031 192.003906 221.679688 200.144531 212.476562 209.703125 C 193.003906 229.929688 167.222656 242.261719 138.546875 245.0625 C 117.160156 247.152344 95.089844 242.964844 75.335938 233.066406 C 63.757812 227.269531 55.621094 221.492188 46.0625 212.289062 C 9.191406 176.796875 -0.304688 121.058594 22.695312 75.148438 C 36.523438 47.550781 60.273438 26.671875 89.363281 16.546875 C 101.507812 12.320312 114.164062 10.167969 126.8125 10.050781 Z M 126.8125 10.050781 "/>
<path style=" stroke:none;fill-rule:evenodd;fill:rgb(78.431373%,21.568627%,44.313725%);fill-opacity:1;" d="M 209.101562 91.402344 L 197.375 100.339844 C 162.742188 56.773438 95.160156 56.773438 61.089844 100.339844 L 48.800781 91.402344 C 89.574219 39.457031 168.886719 39.457031 209.101562 91.402344 Z M 192.90625 103.691406 L 181.175781 113.183594 C 154.925781 79.671875 102.980469 79.671875 76.730469 113.183594 L 65 103.691406 C 97.394531 62.359375 160.511719 62.359375 192.90625 103.691406 Z M 177.265625 115.976562 L 164.976562 125.472656 C 147.105469 102.015625 111.359375 102.015625 92.925781 125.472656 L 80.640625 115.976562 C 105.214844 85.257812 152.691406 85.257812 177.265625 115.976562 Z M 177.265625 115.976562 "/>
<path style=" stroke:none;fill-rule:nonzero;fill:rgb(78.431373%,21.568627%,44.313725%);fill-opacity:1;" d="M 134.816406 150.605469 L 134.816406 204.785156 L 123.648438 204.785156 L 123.648438 150.605469 C 116.386719 148.371094 111.917969 141.671875 111.917969 134.410156 C 111.917969 124.914062 119.179688 117.09375 129.230469 117.09375 C 138.726562 117.09375 146.546875 124.914062 146.546875 134.410156 C 146.546875 141.671875 141.519531 148.371094 134.816406 150.605469 Z M 134.816406 150.605469 "/>
</g>
</svg>
